<?xml version="1.0" standalone="no"?>
<!DOCTYPE svg PUBLIC "-//W3C//DTD SVG 20010904//EN"
 "http://www.w3.org/TR/2001/REC-SVG-20010904/DTD/svg10.dtd">
<svg version="1.0" xmlns="http://www.w3.org/2000/svg"
 width="1280.000000pt" height="1280.000000pt" viewBox="0 0 1280.000000 1280.000000"
 preserveAspectRatio="xMidYMid meet">
<metadata>
Created by potrace 1.15, written by Peter Selinger 2001-2017
</metadata>
<g transform="translate(0.000000,1280.000000) scale(0.100000,-0.100000)"
fill="#901C1C" stroke="none">
<path d="M3790 12393 c-91 -7 -289 -43 -403 -72 -552 -143 -1059 -503 -1374
-976 -209 -314 -320 -596 -385 -975 -18 -103 -22 -165 -22 -355 0 -266 10
-350 70 -588 121 -475 413 -989 876 -1542 298 -357 709 -780 1378 -1420 1106
-1057 1560 -1551 1917 -2085 338 -507 522 -992 540 -1427 3 -79 9 -143 13
-143 4 0 10 64 13 143 24 587 337 1236 948 1967 350 419 645 716 2063 2080
225 217 680 709 877 950 784 958 1042 1786 824 2646 -154 606 -551 1137 -1095
1464 -851 513 -1950 437 -2730 -188 -474 -380 -783 -922 -875 -1531 -8 -56
-15 -124 -15 -152 0 -31 -4 -48 -10 -44 -5 3 -10 26 -10 51 0 76 -30 262 -65
400 -106 417 -319 789 -630 1099 -462 462 -1074 711 -1725 703 -74 -1 -155 -3
-180 -5z"/>
</g>
</svg>
